# xmcd
#
# Track frame offsets: 
#        150
#        13895
#        24940
#        35422
#        47015
#        54727
#        67837
#        77265
#        90090
#        98920
#        109742
#        118557
#        131102
#        142470
#
# Disc length: 2078 seconds
#
# Revision: 1
# Processed by: cddbd v1.5.2PL0 Copyright (c) Steve Scherf et al.
# Submitted via: ExactAudioCopy v0.99pb4
#
DISCID=b2081c0e
DTITLE=Peggy Lee and George Shearing - Beauty and the Beat!
DYEAR=1959
DGENRE=Jazz
TTITLE0=Do I Love You?
TTITLE1=I Lost My Sugar in Salt Lake City
TTITLE2=If Dreams Come True
TTITLE3=All Too Soon
TTITLE4=Mambo in Miami
TTITLE5=Isn't It Romantic?
TTITLE6=Blue Prelude
TTITLE7=You Came a Long Way from St. Louis
TTITLE8=Always True to You in My Fashion
TTITLE9=There'll Be Another Spring
TTITLE10=Get Out of Town
TTITLE11=Satin Doll
TTITLE12=Nobody's Heart
TTITLE13=Don't Ever Leave Me
EXTD=YEAR: 1959
EXTT0=
EXTT1=
EXTT2=
EXTT3=
EXTT4=
EXTT5=
EXTT6=
EXTT7=
EXTT8=
EXTT9=
EXTT10=
EXTT11=
EXTT12=
EXTT13=
PLAYORDER=
